<?xml version="1.0" encoding="utf-8"?>
<!-- Generator: Adobe Illustrator 23.0.5, SVG Export Plug-In . SVG Version: 6.00 Build 0)  -->
<svg version="1.1" id="Capa_1" xmlns="http://www.w3.org/2000/svg" xmlns:xlink="http://www.w3.org/1999/xlink" x="0px" y="0px"
	 viewBox="0 0 855 153" style="enable-background:new 0 0 855 153;" xml:space="preserve">
<style type="text/css">
	.st0{fill:#FFFFFF;}
</style>
<path class="st0" d="M68.8,68.7l3.7-26.1h-61L8.4,66.2L3,103.5h61l3.6-26.1H50.2L49,86H22.9l3.7-26h26l-1.2,8.7
	C51.4,68.7,68.8,68.7,68.8,68.7z M80.3,42.6h60.9l-8.6,60.9h-61L80.3,42.6L80.3,42.6z M95.3,60l-3.8,26h26.2l3.7-26H95.2H95.3z
	 M164,60l-6.2,43.5h-17.4l8.5-61h61l-8.6,61H184l6-43.5h-4.3l-6.1,43.5H162l6.2-43.5h-4.4H164z M217.6,42.6h61l-6.8,47.9h-43.5
	l-1.8,13H209l8.5-61L217.6,42.6z M232.6,60l-1.9,13H257l1.8-13h-26H232.6z M286.3,42.6h17.4L297.6,86h26.1l6.2-43.5h17.4l-8.6,60.9
	h-61l8.6-61L286.3,42.6z M411.2,61l2.5-17.2l-59.2-0.2l-8.3,60.3l58.9,0.1l5.5-38.7h-25.9l-2.4,17.1h8.6l-0.6,4.4l-25.8-0.1
	l3.7-25.8h43L411.2,61z M421.3,43.8l60.3,0.1l-8.6,60.2h-17.3l1.9-13h-25.8l-1.9,13h-17.2L421.3,43.8z M436.1,61l-1.9,13H460l1.9-13
	H436.1z M500.5,85.5l-2.7,18.7h-17.2l8.6-60.3l60.3,0.1l-6.8,47.4h-12.9l11.1,12.9h-24.3L500.5,85.5L500.5,85.5z M504,61.2L502,74
	h26l2-12.9h-26V61.2z M557.1,44l-8.5,59.7v0.6h42.1l0.9-0.6l19.8-17.3l6-42.2L557.1,44L557.1,44z M595.1,79.3l-9,7.9h-17.9l3.7-25.9
	h25.8L595.1,79.3z M0,0"/>
<polygon class="st0" points="636.1,87.3 679.1,87.3 676.7,104.6 616.4,104.4 625,44.2 685.3,44.3 682.8,61.5 639.8,61.5 639.1,65.7 
	682.1,65.8 679.7,83 636.7,83 636.1,87.3 "/>
<polygon class="st0" points="735.6,43.4 731.2,74.3 704.8,43.3 692.6,43.3 684,103.6 701.2,103.6 705.6,72.8 732.1,103.7 
	744.2,103.7 748.5,74 752.8,43.5 735.6,43.5 "/>
</svg>
