<svg width="100" height="19" viewBox="0 0 100 19" fill="none" xmlns="http://www.w3.org/2000/svg">
<path d="M94.9861 7.20247H89.9765V0.00411987H84.9668V18.0041H89.9765V10.8058H94.9861V18.0041H100V0.00411987H94.9861V7.20247Z" fill="white"/>
<path d="M30.1096 0.00411987H28.8507L17.1429 13.3919L11.9699 7.47838L14.5908 4.48456L17.6541 0.984216L18.5091 0.00411987H11.9699L5.00967 7.96019V4.40632V2.1208V0.00411987L0 5.73645V8.01373V18.0041H5.00967V15.4386L8.70032 11.2176L13.8733 17.127L14.6337 18.0041H19.6477L20.4125 17.127L30.1096 6.04118V11.1558H27.6606L24.507 14.7591H30.1096V18.0041H35.1192V0.00411987H33.8604H30.1096Z" fill="white"/>
<path d="M60.8291 7.20247V10.8058H63.5831H66.4489V9.60329V8.40494V7.20247H63.5831H60.8291Z" fill="white"/>
<path d="M37.0483 0.00411987V4.80989H41.8861V9.79684V18.0041H45.435H46.8958V4.80989H51.7336V0.00411987H37.0483Z" fill="white"/>
<path d="M58.7885 0.00411987H57.9764H53.7788V4.80989V13.1984V18.0041H58.7885H66.4491V13.1984H58.7885V11.407V6.60124V4.80989H66.4491V0.00411987H58.7885Z" fill="white"/>
<path d="M80.3436 -3.86149e-06H77.8345C76.6004 -0.00108608 75.3782 0.230966 74.2377 0.682878C73.0972 1.13479 72.0608 1.7977 71.1877 2.63372C70.3147 3.46975 69.6221 4.4625 69.1496 5.55522C68.6771 6.64794 68.4338 7.8192 68.4338 9.00206C68.4338 11.3896 69.4234 13.6793 71.1847 15.3675C72.9461 17.0557 75.335 18.0041 77.8259 18.0041H82.8442V12.9925H77.8259C76.7221 12.9914 75.6638 12.5706 74.8833 11.8225C74.1028 11.0744 73.6638 10.06 73.6626 9.00206C73.6638 7.94408 74.1028 6.92974 74.8833 6.18163C75.6638 5.43353 76.7221 5.01276 77.8259 5.01167H82.8442V0.00411821H80.335L80.3436 -3.86149e-06Z" fill="white"/>
</svg>
